# xmcd
#
# Track frame offsets: 
#        150
#        15097
#        26112
#        41980
#        57770
#        72310
#        86530
#        98882
#        112242
#        127052
#
# Disc length: 1888 seconds
#
# Revision: 1
# Processed by: cddbd v1.5PL3 Copyright (c) Steve Scherf et al.
# Submitted via: ExactAudioCopy v0.95a3
#
DISCID=87075e0a
DTITLE=The Glenn Miller Orchestra - Big Band Sounds
DYEAR=1999
DGENRE=Big Band
TTITLE0=In the Mood
TTITLE1=Chattanooga Choo Choo
TTITLE2=Tuxedo Junction
TTITLE3=Begin the Beguine
TTITLE4=Pennsylvania 6-5000
TTITLE5=Stardust
TTITLE6=Moonlight Serenade
TTITLE7=String of Pearls
TTITLE8=Indian Summer
TTITLE9=Sunrise Serenade
EXTD=
EXTT0=
EXTT1=
EXTT2=
EXTT3=
EXTT4=
EXTT5=
EXTT6=
EXTT7=
EXTT8=
EXTT9=
PLAYORDER=
